0
SECTION
2
HEADER
9
$INSUNITS
70
4
9
$ACADVER
1
AC1014
9
$HANDSEED
5
FFFF
0
ENDSEC
0
SECTION
2
TABLES
0
TABLE
2
VPORT
5
8
100
AcDbSymbolTable
0
ENDTAB
0
TABLE
2
LTYPE
5
5
100
AcDbSymbolTable
0
LTYPE
5
14
100
AcDbSymbolTableRecord
100
AcDbLinetypeTableRecord
2
BYBLOCK
70
0
0
LTYPE
5
15
100
AcDbSymbolTableRecord
100
AcDbLinetypeTableRecord
2
BYLAYER
70
0
0
ENDTAB
0
TABLE
2
LAYER
5
2
100
AcDbSymbolTable
70
2
0
LAYER
5
50
100
AcDbSymbolTableRecord
100
AcDbLayerTableRecord
2
0
70
0
6
CONTINUOUS
0
ENDTAB
0
TABLE
2
STYLE
5
3
100
AcDbSymbolTable
70
1
0
STYLE
5
11
100
AcDbSymbolTableRecord
100
AcDbTextStyleTableRecord
2
STANDARD
70
0
0
ENDTAB
0
TABLE
2
VIEW
5
6
100
AcDbSymbolTable
70
0
0
ENDTAB
0
TABLE
2
UCS
5
7
100
AcDbSymbolTable
70
0
0
ENDTAB
0
TABLE
2
APPID
5
9
100
AcDbSymbolTable
70
2
0
APPID
5
12
100
AcDbSymbolTableRecord
100
AcDbRegAppTableRecord
2
ACAD
70
0
0
ENDTAB
0
TABLE
2
DIMSTYLE
5
A
100
AcDbSymbolTable
70
1
0
ENDTAB
0
TABLE
2
BLOCK_RECORD
5
1
100
AcDbSymbolTable
70
1
0
BLOCK_RECORD
5
1F
100
AcDbSymbolTableRecord
100
AcDbBlockTableRecord
2
*MODEL_SPACE
0
BLOCK_RECORD
5
1B
100
AcDbSymbolTableRecord
100
AcDbBlockTableRecord
2
*PAPER_SPACE
0
ENDTAB
0
ENDSEC
0
SECTION
2
BLOCKS
0
BLOCK
5
20
100
AcDbEntity
100
AcDbBlockBegin
2
*MODEL_SPACE
0
ENDBLK
5
21
100
AcDbEntity
100
AcDbBlockEnd
0
BLOCK
5
1C
100
AcDbEntity
100
AcDbBlockBegin
2
*PAPER_SPACE
0
ENDBLK
5
1D
100
AcDbEntity
100
AcDbBlockEnd
0
ENDSEC
0
SECTION
2
ENTITIES
0
LWPOLYLINE
5
100
100
AcDbEntity
8
0
100
AcDbPolyline
90
8
70
1
43
0.0
10
-142.875
20
46.40016909719138
10
-142.875
20
-44.349830902808606
42
0.41421356237309387
10
-140.625
20
-46.599830902808662
10
140.625
20
-46.599830902808776
42
0.41421356237309503
10
142.87500000000006
20
-44.349830902808691
10
142.875
20
46.400169097191323
42
0.41421356237309276
10
140.625
20
48.650169097191302
10
-140.625
20
48.650169097191387
42
0.41421356237309503
0
LWPOLYLINE
5
101
100
AcDbEntity
8
0
100
AcDbPolyline
90
8
70
1
43
0.0
10
-118.33750000000002
20
-30.07483090280871
10
-117.33750000000001
20
-30.074830902808664
42
-0.41421356237309503
10
-116.83750000000001
20
-30.574830902808671
10
-116.83750000000001
20
-43.574830902808621
42
-0.41421356237309503
10
-117.33750000000001
20
-44.074830902808621
10
-118.33750000000002
20
-44.074830902808614
42
-0.41421356237309503
10
-118.83750000000001
20
-43.574830902808621
10
-118.83749999999999
20
-30.574830902808667
42
-0.41421356237309243
0
LWPOLYLINE
5
102
100
AcDbEntity
8
0
100
AcDbPolyline
90
8
70
1
43
0.0
10
-69.212500000000006
20
-30.574830902808667
10
-69.21250000000002
20
-43.574830902808621
42
-0.41421356237309503
10
-69.712500000000006
20
-44.074830902808621
10
-70.712500000000006
20
-44.074830902808621
42
-0.41421356237309503
10
-71.212500000000006
20
-43.574830902808621
10
-71.212500000000006
20
-30.574830902808667
42
-0.41421356237309503
10
-70.712500000000006
20
-30.074830902808678
10
-69.712500000000006
20
-30.07483090280866
42
-0.41421356237309503
0
LWPOLYLINE
5
103
100
AcDbEntity
8
0
100
AcDbPolyline
90
8
70
1
43
0.0
10
-103.69374999999999
20
-11.02483090280861
10
-100.73750000000001
20
-11.024830902808665
42
-0.41421356237309503
10
-100.2375
20
-11.524830902808672
10
-100.2375
20
-24.524831111424945
42
-0.41421356237311063
10
-100.73750000000001
20
-25.024831111424945
10
-103.69374999999999
20
-25.024830902808624
42
-0.41421356237309503
10
-104.19375000000001
20
-24.524830902808617
10
-104.19375000000005
20
-11.524830902808672
42
-0.4142135623730937
0
LWPOLYLINE
5
104
100
AcDbEntity
8
0
100
AcDbPolyline
90
8
70
1
43
0.0
10
-118.33750000000002
20
27.075169097191377
10
-115.02500000000001
20
27.075169097191392
42
-0.41421356237309764
10
-114.52500000000003
20
26.575169097191417
10
-114.52500000000001
20
13.575168888575149
42
-0.41421356237310542
10
-115.02500000000003
20
13.075168888575144
10
-118.33750000000002
20
13.075169097191379
42
-0.41421356237309503
10
-118.83750000000001
20
13.575169097191369
10
-118.83750000000008
20
26.575169097191313
42
-0.41421356237309503
0
LWPOLYLINE
5
105
100
AcDbEntity
8
0
100
AcDbPolyline
90
8
70
1
43
0.0
10
117.33750000000001
20
-30.074830902808692
10
118.33750000000002
20
-30.074830902808646
42
-0.41421356237309503
10
118.83750000000003
20
-30.574830902808653
10
118.83750000000003
20
-43.574830902808714
42
-0.41421356237308982
10
118.33750000000002
20
-44.074830902808699
10
117.33750000000001
20
-44.074830902808706
42
-0.41421356237315227
10
116.83750000000001
20
-43.5748309028086
10
116.83750000000003
20
-30.57483090280865
42
-0.41421356237309243
0
LWPOLYLINE
5
106
100
AcDbEntity
8
0
100
AcDbPolyline
90
8
70
1
43
0.0
10
-115.95625
20
8.0251690971913643
10
-110.26250000000002
20
8.0251690971913767
42
-0.4142135623730937
10
-109.7625
20
7.5251690971913723
10
-109.76249999999996
20
-5.474830902808657
42
-0.41421356237307227
10
-110.26250000000002
20
-5.9748309028086517
10
-115.95625
20
-5.9748309028086553
42
-0.41421356237309437
10
-116.45625000000001
20
-5.4748309028086499
10
-116.45625000000001
20
7.5251690971913634
42
-0.41421356237309437
0
LWPOLYLINE
5
107
100
AcDbEntity
8
0
100
AcDbPolyline
90
8
70
1
43
0.0
10
69.712500000000006
20
-30.074830902808696
10
70.712500000000006
20
-30.07483090280866
42
-0.41421356237309503
10
71.212500000000006
20
-30.574830902808657
10
71.212500000000006
20
-43.574830902808714
42
-0.41421356237308982
10
70.712500000000006
20
-44.074830902808699
10
69.712500000000006
20
-44.074830902808699
42
-0.41421356237309503
10
69.21250000000002
20
-43.574830902808699
10
69.212500000000048
20
-30.57483090280865
42
-0.41421356237308982
0
LWPOLYLINE
5
108
100
AcDbEntity
8
0
100
AcDbPolyline
90
8
70
1
43
0.0
10
-139.84999999999999
20
46.125169097191225
42
0.41421356237310025
10
-140.34999999999999
20
45.625169097191218
10
-140.34999999999999
20
32.625169097191261
42
0.41421356237310542
10
-139.84999999999999
20
32.125169097191304
10
-126.85000000000001
20
32.125169097191261
42
0.41421356237307161
10
-126.34999999999999
20
32.625169097191261
10
-126.34999999999999
20
45.625169097191218
42
0.41421356237307422
10
-126.85000000000001
20
46.125169097191261
0
LWPOLYLINE
5
109
100
AcDbEntity
8
0
100
AcDbPolyline
90
8
70
1
43
0.0
10
114.15625000000006
20
-30.574830902808753
42
0.41421356237309764
10
113.65625000000001
20
-30.074830902808706
10
98.275000000000006
20
-30.074830902808721
42
0.41421356237309764
10
97.77500000000002
20
-30.574830902808756
10
97.775000000000105
20
-43.574830902808699
42
0.41421356237308982
10
98.275000000000006
20
-44.074830902808557
10
113.65625000000001
20
-44.074830902808706
42
0.41421356237310025
10
114.15625
20
-43.574830902808692
0
LWPOLYLINE
5
110
100
AcDbEntity
8
0
100
AcDbPolyline
90
8
70
1
43
0.0
10
137.96874999999997
20
-30.574830902808653
42
0.41421356237309764
10
137.46875
20
-30.074830902808678
10
122.08750000000002
20
-30.074830902808664
42
0.41421356237311063
10
121.58750000000001
20
-30.57483090280865
10
121.58749999999991
20
-43.574830902808699
42
0.414213562373069
10
122.08750000000002
20
-44.074830902808856
10
137.46875
20
-44.074830902808728
42
0.41421356237308982
10
137.96875
20
-43.574830902808714
0
LWPOLYLINE
5
111
100
AcDbEntity
8
0
100
AcDbPolyline
90
8
70
1
43
0.0
10
74.462500000000006
20
-11.024830902808752
42
0.41421356237310542
10
73.962500000000006
20
-11.524830902808759
10
73.962500000000034
20
-24.524830902808709
42
0.41421356237310281
10
74.462500000000006
20
-25.024830902808674
10
87.46250000000002
20
-25.024830902808731
42
0.41421356237309764
10
87.962500000000006
20
-24.524830902808709
10
87.962499999999991
20
-11.524830902808761
42
0.41421356237309503
10
87.46250000000002
20
-11.024830902808793
0
LWPOLYLINE
5
112
100
AcDbEntity
8
0
100
AcDbPolyline
90
8
70
1
43
0.0
10
-120.8
20
46.125169097191225
42
0.4142135623730378
10
-121.30000000000001
20
45.625169097191318
10
-121.29999999999997
20
32.625169097191367
42
0.41421356237315748
10
-120.8
20
32.125169097191304
10
-107.80000000000001
20
32.125169097191289
42
0.41421356237309764
10
-107.30000000000001
20
32.625169097191261
10
-107.30000000000001
20
45.625169097191218
42
0.41421356237310542
10
-107.80000000000001
20
46.125169097191261
0
LWPOLYLINE
5
113
100
AcDbEntity
8
0
100
AcDbPolyline
90
8
70
1
43
0.0
10
-137.46875
20
-30.074830902808579
42
0.41421356237309764
10
-137.96875
20
-30.574830902808571
10
-137.96875000000003
20
-43.574830902808621
42
0.41421356237307422
10
-137.46875
20
-44.074830902808571
10
-122.08750000000002
20
-44.074830902808642
42
0.41421356237308982
10
-121.58750000000001
20
-43.574830902808621
10
-121.58750000000001
20
-30.574830902808667
42
0.41421356237313406
10
-122.08750000000002
20
-30.07483090280861
0
LWPOLYLINE
5
114
100
AcDbEntity
8
0
100
AcDbPolyline
90
8
70
1
43
0.0
10
-63.650000000000006
20
46.125169097191225
42
0.41421356237311585
10
-64.150000000000006
20
45.625169097191218
10
-64.150000000000048
20
32.625169097191268
42
0.4142135623730846
10
-63.650000000000006
20
32.125169097191304
10
-50.650000000000006
20
32.125169097191296
42
0.41421356237310542
10
-50.150000000000006
20
32.625169097191275
10
-50.150000000000034
20
45.625169097191225
42
0.41421356237310542
10
-50.650000000000006
20
46.125169097191261
0
LWPOLYLINE
5
115
100
AcDbEntity
8
0
100
AcDbPolyline
90
8
70
1
43
0.0
10
-1.7375000000001093
20
-11.024830902808741
42
0.41421356237309459
10
-2.237500000000133
20
-11.524830902808766
10
-2.2375000000000802
20
-24.52483090280861
42
0.41421356237309698
10
-1.7375000000001073
20
-25.024830902808578
10
11.262500000000003
20
-25.024830902808635
42
0.41421356237304041
10
11.762499999999999
20
-24.524830902808713
10
11.762500000000006
20
-11.524830902808766
42
0.41421356237309892
10
11.262499999999999
20
-11.024830902808702
0
LWPOLYLINE
5
116
100
AcDbEntity
8
0
100
AcDbPolyline
90
8
70
1
43
0.0
10
36.362499999999997
20
-11.024830902808757
42
0.4142135623730937
10
35.86249999999999
20
-11.524830902808764
10
35.862499999999955
20
-24.524830902808709
42
0.41421356237309764
10
36.362499999999997
20
-25.024830902808674
10
49.362500000000004
20
-25.024830902808716
42
0.41421356237309503
10
49.862499999999997
20
-24.524830902808709
10
49.862500000000011
20
-11.524830902808763
42
0.41421356237310025
10
49.362500000000004
20
-11.024830902808699
0
LWPOLYLINE
5
117
100
AcDbEntity
8
0
100
AcDbPolyline
90
8
70
1
43
0.0
10
-18.40625
20
-30.074830902808671
42
0.41421356237309115
10
-18.906249999999993
20
-30.574830902808657
10
-18.906250000000004
20
-43.574830902808614
42
0.41421356237309764
10
-18.40625
20
-44.074830902808664
10
6.4999999999999334
20
-44.074830902808714
42
0.41421356237314638
10
7.0000000000000036
20
-43.574830902808714
10
6.9999999999999387
20
-30.574830902808664
42
0.4142135623730957
10
6.5000000000000018
20
-30.074830902808699
0
LWPOLYLINE
5
118
100
AcDbEntity
8
0
100
AcDbPolyline
90
8
70
1
43
0.0
10
55.412500000000009
20
-11.024830902808754
42
0.41421356237309892
10
54.912500000000009
20
-11.524830902808761
10
54.912500000000037
20
-24.524830902808709
42
0.41421356237310281
10
55.412500000000009
20
-25.024830902808674
10
68.412499999999994
20
-25.024830902808716
42
0.41421356237309503
10
68.912499999999994
20
-24.524830902808709
10
68.912499999999966
20
-11.524830902808763
42
0.41421356237309631
10
68.412499999999994
20
-11.024830902808798
0
LWPOLYLINE
5
119
100
AcDbEntity
8
0
100
AcDbPolyline
90
8
70
1
43
0.0
10
-113.65625000000001
20
-30.074830902808682
42
0.41421356237311324
10
-114.15625
20
-30.574830902808671
10
-114.15625
20
-43.574830902808621
42
0.41421356237311063
10
-113.65625000000001
20
-44.074830902808671
10
-98.275000000000006
20
-44.074830902808642
42
0.41421356237308982
10
-97.77500000000002
20
-43.574830902808621
10
-97.775000000000006
20
-30.574830902808667
42
0.41421356237310542
10
-98.275000000000006
20
-30.07483090280861
0
LWPOLYLINE
5
120
100
AcDbEntity
8
0
100
AcDbPolyline
90
8
70
1
43
0.0
10
-119.20625000000001
20
7.5251690971914016
42
0.41421356237307555
10
-119.70625
20
8.0251690971913945
10
-137.46875
20
8.0251690971914087
42
0.41421356237307294
10
-137.96875
20
7.5251690971914016
10
-137.96875000000003
20
-5.4748309028086091
42
0.41421356237307422
10
-137.46875
20
-5.9748309028086011
10
-119.70625
20
-5.9748309028085806
42
0.41421356237307422
10
-119.20625000000001
20
-5.4748309028086091
0
LWPOLYLINE
5
121
100
AcDbEntity
8
0
100
AcDbPolyline
90
8
70
1
43
0.0
10
-65.40625
20
-42.574830902808586
42
0.41421356237309503
10
-64.90625
20
-43.074830902808586
10
-54.149999999999999
20
-43.074830902808586
42
0.41421356237310025
10
-53.650000000000006
20
-42.574830902808586
10
-53.649999999999991
20
-28.574830902808614
42
0.41421356237309503
10
-54.149999999999999
20
-28.074830902808646
10
-64.90625
20
-28.074830902808614
42
0.41421356237309503
10
-65.40625
20
-28.574830902808614
0
LWPOLYLINE
5
122
100
AcDbEntity
8
0
100
AcDbPolyline
90
8
70
1
43
0.0
10
98.275000000000006
20
27.075169097191374
42
0.41421356237310025
10
97.774999999999963
20
26.575169097191331
10
97.775000000000105
20
13.575169097191385
42
0.4142135623730937
10
98.275000000000006
20
13.075169097191326
10
111.27500000000001
20
13.075169097191379
42
0.41421356237309764
10
111.77500000000002
20
13.575169097191388
10
111.77499999999998
20
26.575169097191331
42
0.41421356237309764
10
111.27500000000001
20
27.075169097191292
0
LWPOLYLINE
5
123
100
AcDbEntity
8
0
100
AcDbPolyline
90
8
70
1
43
0.0
10
-77.9375
20
-11.024830902808766
42
0.41421356237304041
10
-78.4375
20
-11.524830902808674
10
-78.437500000000043
20
-24.524830902808613
42
0.41421356237308982
10
-77.9375
20
-25.024830902808684
10
-64.9375
20
-25.024830902808645
42
0.4142135623730846
10
-64.4375
20
-24.524830902808617
10
-64.437500000000028
20
-11.524830902808771
42
0.41421356237309631
10
-64.9375
20
-11.024830902808811
0
LWPOLYLINE
5
124
100
AcDbEntity
8
0
100
AcDbPolyline
90
8
70
1
43
0.0
10
-11.262499999999999
20
8.0251690971913465
42
0.41421356237309631
10
-11.762500000000005
20
7.5251690971913394
10
-11.762500000000045
20
-5.4748309028086002
42
0.41421356237312168
10
-11.262499999999998
20
-5.974830902808641
10
1.7374999999999308
20
-5.9748309028086757
42
0.41421356237311391
10
2.2374999999999408
20
-5.4748309028086384
10
2.2374999999999368
20
7.5251690971913394
42
0.41421356237307128
10
1.7374999999999696
20
8.025169097191343
0
LWPOLYLINE
5
125
100
AcDbEntity
8
0
100
AcDbPolyline
90
8
70
1
43
0.0
10
-96.987500000000011
20
-11.024830902808665
42
0.41421356237313273
10
-97.487500000000011
20
-11.524830902808771
10
-97.487499999999983
20
-24.524830902808617
42
0.41421356237309764
10
-96.987500000000011
20
-25.024830902808581
10
-83.987499999999997
20
-25.02483090280862
42
0.41421356237309243
10
-83.487500000000011
20
-24.524830902808617
10
-83.487499999999983
20
-11.524830902808672
42
0.41421356237301438
10
-83.987499999999997
20
-11.024830902808706
0
LWPOLYLINE
5
126
100
AcDbEntity
8
0
100
AcDbPolyline
90
8
70
1
43
0.0
10
83.987499999999997
20
8.0251690971913181
42
0.41421356237309764
10
83.487500000000026
20
7.5251690971913456
10
83.487500000000026
20
-5.4748309028086615
42
0.41421356237309631
10
83.987499999999997
20
-5.9748309028086757
10
96.987500000000011
20
-5.9748309028086677
42
0.41421356237309176
10
97.487500000000011
20
-5.4748309028086641
10
97.48750000000004
20
7.5251690971913474
42
0.41421356237310025
10
96.987500000000011
20
8.0251690971913909
0
LWPOLYLINE
5
127
100
AcDbEntity
8
0
100
AcDbPolyline
90
16
70
1
43
0.0
10
60.650000000000006
20
-28.574830902808699
10
60.650000000000006
20
-29.574830902808728
42
0.41421356237309503
10
61.150000000000006
20
-30.074830902808699
10
66.03125
20
-30.074830902808685
42
-0.41421356237310281
10
66.531249999999972
20
-30.574830902808653
10
66.531250000000028
20
-43.574830902808714
42
-0.41421356237308982
10
66.03125
20
-44.074830902808728
10
53.031250000000007
20
-44.074830902808728
42
-0.41421356237311063
10
52.53125
20
-43.574830902808714
10
52.531250000000007
20
-30.574830902808657
42
-0.41421356237309243
10
53.031250000000007
20
-30.074830902808671
10
53.150000000000006
20
-30.074830902808696
42
0.41421356237309503
10
53.649999999999991
20
-29.574830902808728
10
53.650000000000013
20
-28.574830902808699
42
-0.41421356237310542
10
54.149999999999999
20
-28.074830902808714
10
60.150000000000006
20
-28.074830902808699
42
-0.41421356237308721
0
LWPOLYLINE
5
128
100
AcDbEntity
8
0
100
AcDbPolyline
90
8
70
1
43
0.0
10
64.9375
20
8.0251690971913163
42
0.41421356237309764
10
64.437500000000028
20
7.525169097191343
10
64.437500000000099
20
-5.474830902808633
42
0.41421356237312362
10
64.9375
20
-5.9748309028085655
10
77.9375
20
-5.9748309028086695
42
0.41421356237309631
10
78.4375
20
-5.474830902808665
10
78.437499999999972
20
7.5251690971913465
42
0.41421356237309631
10
77.9375
20
8.0251690971913181
0
LWPOLYLINE
5
129
100
AcDbEntity
8
0
100
AcDbPolyline
90
8
70
1
43
0.0
10
-89.84375
20
-30.074830902808678
42
0.41421356237311324
10
-90.343749999999986
20
-30.574830902808667
10
-90.343749999999972
20
-43.574830902808621
42
0.41421356237310025
10
-89.84375
20
-44.074830902808571
10
-74.462500000000006
20
-44.074830902808642
42
0.41421356237310025
10
-73.962500000000006
20
-43.574830902808614
10
-73.962500000000077
20
-30.574830902808664
42
0.41421356237310281
10
-74.462500000000006
20
-30.07483090280871
0
LWPOLYLINE
5
130
100
AcDbEntity
8
0
100
AcDbPolyline
90
24
70
1
43
0.0
10
140.35000000000005
20
-11.524830902808754
42
0.41421356237307555
10
139.84999999999999
20
-11.024830902808691
10
100.65625
20
-11.024830902808754
42
0.4142135623730937
10
100.15625
20
-11.524830902808759
10
100.15625000000003
20
-24.524830902808702
42
0.41421356237309764
10
100.65625
20
-25.02483090280867
10
100.74325000000002
20
-25.024830902808645
42
-0.41421356237309503
10
101.24325
20
-25.524830902808631
10
101.24325000000005
20
-26.52483090280866
42
0.41421356237309764
10
101.74325000000002
20
-27.024830902808624
10
107.74325000000002
20
-27.024830902808688
42
0.41421356237308204
10
108.24325000000002
20
-26.524830902808656
10
108.24324999999995
20
-25.524830902808731
42
-0.41421356237309503
10
108.74325
20
-25.02483090280867
10
124.61925000000001
20
-25.024830902808645
42
-0.41421356237309503
10
125.11924999999999
20
-25.524830902808631
10
125.11925000000004
20
-26.52483090280866
42
0.41421356237309764
10
125.61925000000001
20
-27.024830902808624
10
131.61924999999999
20
-27.024830902808667
42
0.41421356237309764
10
132.11925000000002
20
-26.524830902808656
10
132.11924999999994
20
-25.524830902808731
42
-0.41421356237309503
10
132.61924999999999
20
-25.02483090280867
10
139.84999999999999
20
-25.024830902808709
42
0.41421356237309764
10
140.34999999999999
20
-24.524830902808699
0
LWPOLYLINE
5
131
100
AcDbEntity
8
0
100
AcDbPolyline
90
8
70
1
43
0.0
10
-68.412499999999994
20
8.0251690971913767
42
0.41421356237311452
10
-68.91249999999998
20
7.5251690971913652
10
-68.912500000000037
20
-5.4748309028086037
42
0.41421356237309115
10
-68.412499999999994
20
-5.9748309028086179
10
-55.412500000000009
20
-5.9748309028086455
42
0.41421356237307227
10
-54.912500000000009
20
-5.4748309028086446
10
-54.912500000000037
20
7.5251690971913749
42
0.41421356237310025
10
-55.412500000000009
20
8.0251690971913376
0
LWPOLYLINE
5
132
100
AcDbEntity
8
0
100
AcDbPolyline
90
8
70
1
43
0.0
10
-30.3125
20
8.0251690971913447
42
0.41421356237309048
10
-30.812500000000007
20
7.5251690971913385
10
-30.812500000000007
20
-5.4748309028086419
42
0.41421356237309115
10
-30.3125
20
-5.9748309028086428
10
-17.3125
20
-5.9748309028086464
42
0.41421356237309892
10
-16.8125
20
-5.4748309028086375
10
-16.812499999999993
20
7.5251690971913385
42
0.41421356237309764
10
-17.3125
20
8.025169097191343
0
LWPOLYLINE
5
133
100
AcDbEntity
8
0
100
AcDbPolyline
90
8
70
1
43
0.0
10
41.09375
20
-43.074830902808685
42
0.41421356237311585
10
41.593750000000007
20
-42.574830902808678
10
41.593750000000007
20
-28.574830902808699
42
0.41421356237310025
10
41.09375
20
-28.074830902808635
10
35.09375
20
-28.074830902808714
42
0.4142135623730846
10
34.593750000000007
20
-28.574830902808699
10
34.593750000000071
20
-42.574830902808678
42
0.41421356237309243
10
35.09375
20
-43.07483090280865
0
LWPOLYLINE
5
134
100
AcDbEntity
8
0
100
AcDbPolyline
90
8
70
1
43
0.0
10
45.887500000000003
20
8.0251690971913501
42
0.41421356237309825
10
45.387500000000003
20
7.5251690971913421
10
45.387500000000031
20
-5.474830902808665
42
0.41421356237309698
10
45.887500000000003
20
-5.9748309028086366
10
58.88750000000001
20
-5.9748309028086721
42
0.41421356237309631
10
59.387500000000003
20
-5.4748309028086677
10
59.387499999999839
20
7.5251690971913447
42
0.41421356237308593
10
58.88750000000001
20
8.0251690971913465
0
LWPOLYLINE
5
135
100
AcDbEntity
8
0
100
AcDbPolyline
90
8
70
1
43
0.0
10
90.343750000000043
20
-30.574830902808653
42
0.41421356237309764
10
89.84375
20
-30.074830902808607
10
74.462500000000006
20
-30.074830902808635
42
0.41421356237308982
10
73.962500000000006
20
-30.57483090280865
10
73.962500000000034
20
-43.5748309028086
42
0.41421356237310542
10
74.462500000000006
20
-44.074830902808657
10
89.84375
20
-44.074830902808706
42
0.41421356237308982
10
90.34375
20
-43.574830902808714
0
LWPOLYLINE
5
136
100
AcDbEntity
8
0
100
AcDbPolyline
90
8
70
1
43
0.0
10
-87.46250000000002
20
8.0251690971913359
42
0.41421356237306967
10
-87.962499999999991
20
7.5251690971914051
10
-87.962499999999991
20
-5.4748309028086064
42
0.41421356237309631
10
-87.46250000000002
20
-5.974830902808649
10
-74.462500000000006
20
-5.9748309028086481
42
0.41421356237310347
10
-73.962500000000006
20
-5.4748309028086037
10
-73.962500000000034
20
7.5251690971913652
42
0.41421356237309631
10
-74.462500000000006
20
8.0251690971913376
0
LWPOLYLINE
5
137
100
AcDbEntity
8
0
100
AcDbPolyline
90
16
70
1
43
0.0
10
-113.50575000000001
20
-25.024830902808585
10
-129.38175000000001
20
-25.024830902808585
42
0.41421356237309503
10
-129.88175000000001
20
-25.524830902808652
10
-129.88175000000004
20
-26.524830902808677
42
-0.41421356237311063
10
-130.38175000000001
20
-27.024830902808663
10
-136.38175000000001
20
-27.024830902808674
42
-0.41421356237308721
10
-136.88175000000004
20
-26.524830902808677
10
-136.88175000000001
20
-11.524830902808676
42
-0.41421356237310025
10
-136.38175000000001
20
-11.024830902808686
10
-106.50575000000002
20
-11.024830902808645
42
-0.41421356237309764
10
-106.00574999999999
20
-11.524830902808674
10
-106.00575000000001
20
-26.524830902808674
42
-0.41421356237307683
10
-106.50575000000002
20
-27.024830902808684
10
-112.50575000000001
20
-27.024830902808674
42
-0.41421356237310802
10
-113.00575000000002
20
-26.524830902808677
10
-113.00575000000002
20
-25.524830902808652
42
0.41421356237309503
0
LWPOLYLINE
5
138
100
AcDbEntity
8
0
100
AcDbPolyline
90
8
70
1
43
0.0
10
7.7875000000000005
20
8.0251690971913483
42
0.41421356237309437
10
7.2874999999999943
20
7.5251690971913421
10
7.287500000000029
20
-5.4748309028086384
42
0.41421356237309764
10
7.7875000000000005
20
-5.974830902808641
10
20.787500000000001
20
-5.9748309028086481
42
0.41421356237310153
10
21.287500000000001
20
-5.4748309028086375
10
21.287500000000044
20
7.5251690971913412
42
0.41421356237309892
10
20.787500000000001
20
8.0251690971913465
0
LWPOLYLINE
5
139
100
AcDbEntity
8
0
100
AcDbPolyline
90
24
70
1
43
0.0
10
129.38175000000001
20
-5.9748309028086997
10
113.50575000000001
20
-5.9748309028087023
42
0.41421356237308399
10
113.00575000000003
20
-6.4748309028086561
10
113.00575000000002
20
-7.4748309028086908
42
-0.4142135623730937
10
112.50575000000001
20
-7.9748309028086997
10
106.50575000000002
20
-7.9748309028086686
42
-0.41421356237309698
10
106.00575000000005
20
-7.4748309028086934
10
106.00574999999995
20
9.5251690971913412
42
-0.41421356237311063
10
106.50575000000002
20
10.025169097191387
10
112.50575000000001
20
10.02516909719132
42
-0.41421356237309698
10
113.00574999999998
20
9.5251690971913447
10
113.00575000000002
20
8.5251690971913288
42
0.41421356237309764
10
113.50575000000001
20
8.0251690971912826
10
129.38175000000001
20
8.0251690971912826
42
0.41421356237309503
10
129.88175000000007
20
8.525169097191327
10
129.88175000000001
20
9.5251690971913447
42
-0.41421356237309503
10
130.38175000000001
20
10.025169097191352
10
136.38175000000001
20
10.025169097191275
42
-0.41421356237309437
10
136.88174999999998
20
9.5251690971913057
10
136.88175000000004
20
-7.4748309028087023
42
-0.41421356237307422
10
136.38175000000001
20
-7.9748309028087103
10
130.38175000000001
20
-7.9748309028085762
42
-0.41421356237308526
10
129.88175000000015
20
-7.4748309028087103
10
129.88175000000001
20
-6.4748309028086739
42
0.41421356237309503
0
LWPOLYLINE
5
140
100
AcDbEntity
8
0
100
AcDbPolyline
90
8
70
1
43
0.0
10
122.08750000000002
20
27.075169097191374
42
0.41421356237316526
10
121.58749999999996
20
26.575169097191235
10
121.58750000000005
20
13.575169097191386
42
0.41421356237309631
10
122.08750000000002
20
13.075169097191328
10
135.08750000000001
20
13.075169097191345
42
0.41421356237311063
10
135.58750000000001
20
13.575169097191388
10
135.58749999999989
20
26.575169097191331
42
0.41421356237306123
10
135.08750000000001
20
27.075169097191196
0
LWPOLYLINE
5
141
100
AcDbEntity
8
0
100
AcDbPolyline
90
8
70
1
43
0.0
10
-58.88750000000001
20
-11.024830902808763
42
0.41421356237309892
10
-59.387500000000003
20
-11.52483090280877
10
-59.387500000000017
20
-24.524830902808613
42
0.41421356237309764
10
-58.88750000000001
20
-25.024830902808684
10
-45.887500000000003
20
-25.024830902808613
42
0.41421356237309243
10
-45.387500000000003
20
-24.524830902808617
10
-45.387499999999996
20
-11.524830902808771
42
0.41421356237310025
10
-45.887500000000003
20
-11.024830902808704
0
LWPOLYLINE
5
142
100
AcDbEntity
8
0
100
AcDbPolyline
90
8
70
1
43
0.0
10
26.837499999999999
20
8.0251690971913483
42
0.41421356237309048
10
26.337499999999991
20
7.5251690971913412
10
26.337499999999991
20
-5.4748309028086659
42
0.41421356237309115
10
26.837499999999999
20
-5.9748309028086775
10
39.837499999999999
20
-5.974830902808673
42
0.41421356237310025
10
40.337500000000006
20
-5.4748309028086686
10
40.337500000000041
20
7.525169097191343
42
0.41421356237309764
10
39.837499999999999
20
8.0251690971913465
0
LWPOLYLINE
5
143
100
AcDbEntity
8
0
100
AcDbPolyline
90
24
70
1
43
0.0
10
108.38700000000003
20
30.625169097191126
42
0.41421356237309764
10
108.887
20
30.125169097191147
10
114.88700000000001
20
30.125169097191218
42
0.41421356237308982
10
115.387
20
30.625169097191222
10
115.38700000000004
20
31.625169097191247
42
-0.41421356237309503
10
115.88700000000001
20
32.125169097191218
10
131.76300000000001
20
32.125169097191254
42
-0.41421356237309243
10
132.26300000000003
20
31.62516909719125
10
132.26299999999995
20
30.625169097191225
42
0.41421356237308721
10
132.76300000000001
20
30.125169097191169
10
138.76300000000001
20
30.125169097191229
42
0.41421356237311324
10
139.26300000000001
20
30.625169097191222
10
139.26300000000003
20
31.625169097191247
42
-0.41421356237309503
10
139.76300000000003
20
32.125169097191218
10
139.84999999999999
20
32.125169097191176
42
0.41421356237309243
10
140.34999999999999
20
32.625169097191176
10
140.34999999999997
20
45.625169097191133
42
0.41421356237310025
10
139.84999999999999
20
46.125169097191197
10
107.80000000000001
20
46.125169097191247
42
0.41421356237310025
10
107.30000000000001
20
45.625169097191232
10
107.30000000000004
20
32.625169097191183
42
0.41421356237309764
10
107.80000000000001
20
32.125169097191218
10
107.887
20
32.125169097191254
42
-0.41421356237309503
10
108.38700000000001
20
31.625169097191247
0
LWPOLYLINE
5
144
100
AcDbEntity
8
0
100
AcDbPolyline
90
8
70
1
43
0.0
10
79.224999999999994
20
27.07516909719137
42
0.41421356237310281
10
78.724999999999952
20
26.575169097191328
10
78.725000000000023
20
13.575169097191385
42
0.41421356237309503
10
79.224999999999994
20
13.075169097191324
10
92.224999999999994
20
13.075169097191338
42
0.41421356237310153
10
92.724999999999994
20
13.575169097191388
10
92.725000000000193
20
26.575169097191331
42
0.41421356237307422
10
92.224999999999994
20
27.075169097191491
0
LWPOLYLINE
5
145
100
AcDbEntity
8
0
100
AcDbPolyline
90
8
70
1
43
0.0
10
-20.787500000000001
20
-11.024830902808745
42
0.4142135623730937
10
-21.28750000000003
20
-11.52483090280877
10
-21.28750000000008
20
-24.52483090280861
42
0.4142135623730846
10
-20.787500000000001
20
-25.024830902808681
10
-7.7874999999999979
20
-25.024830902808635
42
0.41421356237309825
10
-7.2874999999999979
20
-24.52483090280861
10
-7.2874999999999925
20
-11.524830902808766
42
0.41421356237309825
10
-7.7875000000000005
20
-11.024830902808704
0
LWPOLYLINE
5
146
100
AcDbEntity
8
0
100
AcDbPolyline
90
8
70
1
43
0.0
10
-49.362500000000004
20
8.0251690971913412
42
0.41421356237309959
10
-49.862499999999976
20
7.5251690971913776
10
-49.862499999999976
20
-5.4748309028086428
42
0.41421356237306967
10
-49.362500000000004
20
-5.9748309028086455
10
-36.362499999999997
20
-5.9748309028086428
42
0.41421356237307094
10
-35.862499999999997
20
-5.4748309028086428
10
-35.86249999999999
20
7.5251690971913687
42
0.41421356237309309
10
-36.362499999999997
20
8.025169097191343
0
LWPOLYLINE
5
147
100
AcDbEntity
8
0
100
AcDbPolyline
90
8
70
1
43
0.0
10
-106.51250000000002
20
8.0251690971913767
42
0.41421356237309631
10
-107.01249999999999
20
7.5251690971914043
10
-107.01250000000002
20
-5.4748309028086073
42
0.41421356237310542
10
-106.51250000000002
20
-5.9748309028086197
10
-93.512500000000003
20
-5.9748309028086126
42
0.4142135623730937
10
-93.012500000000017
20
-5.4748309028086082
10
-93.012499999999932
20
7.5251690971914034
42
0.414213562373136
10
-93.512500000000003
20
8.0251690971913767
0
LWPOLYLINE
5
148
100
AcDbEntity
8
0
100
AcDbPolyline
90
8
70
1
43
0.0
10
17.3125
20
-11.024830902808739
42
0.41421356237309243
10
16.812499999999979
20
-11.524830902808764
10
16.812499999999996
20
-24.524830902808713
42
0.41421356237302998
10
17.3125
20
-25.024830902808674
10
30.3125
20
-25.024830902808716
42
0.41421356237314705
10
30.812500000000004
20
-24.52483090280861
10
30.812500000000043
20
-11.524830902808764
42
0.41421356237309764
10
30.3125
20
-11.0248309028087
0
LWPOLYLINE
5
149
100
AcDbEntity
8
0
100
AcDbPolyline
90
8
70
1
43
0.0
10
-39.837499999999999
20
-11.024830902808759
42
0.41421356237309631
10
-40.337500000000013
20
-11.524830902808766
10
-40.337499999999977
20
-24.524830902808613
42
0.41421356237308204
10
-39.837499999999999
20
-25.024830902808578
10
-26.837499999999999
20
-25.02483090280861
42
0.41421356237309503
10
-26.337499999999999
20
-24.52483090280861
10
-26.337500000000063
20
-11.52483090280877
42
0.41421356237308982
10
-26.837499999999999
20
-11.024830902808805
0
LWPOLYLINE
5
150
100
AcDbEntity
8
0
100
AcDbPolyline
90
8
70
1
43
0.0
10
-73.174999999999997
20
27.07516909719136
42
0.41421356237310281
10
-73.675000000000054
20
26.575169097191317
10
-73.67500000000004
20
13.575169097191374
42
0.41421356237309115
10
-73.174999999999997
20
13.075169097191409
10
-60.174999999999997
20
13.075169097191331
42
0.41421356237310675
10
-59.675000000000004
20
13.575169097191376
10
-59.675000000000026
20
26.575169097191317
42
0.41421356237310281
10
-60.174999999999997
20
27.075169097191282
0
LWPOLYLINE
5
151
100
AcDbEntity
8
0
100
AcDbPolyline
90
8
70
1
43
0.0
10
22.074999999999999
20
27.075169097191363
42
0.41421356237309764
10
21.57499999999996
20
26.575169097191321
10
21.575000000000028
20
13.575169097191379
42
0.41421356237309243
10
22.074999999999999
20
13.075169097191417
10
35.075000000000003
20
13.075169097191337
42
0.41421356237310025
10
35.575000000000003
20
13.575169097191385
10
35.574999999999974
20
26.575169097191328
42
0.41421356237310025
10
35.075000000000003
20
27.075169097191285
0
LWPOLYLINE
5
152
100
AcDbEntity
8
0
100
AcDbPolyline
90
8
70
1
43
0.0
10
3.0249999999998982
20
27.075169097191363
42
0.4142135623730957
10
2.5249999999998547
20
26.575169097191321
10
2.524999999999892
20
13.575169097191377
42
0.41421356237309764
10
3.0249999999999
20
13.075169097191417
10
16.024999999999999
20
13.075169097191337
42
0.41421356237309503
10
16.524999999999995
20
13.575169097191379
10
16.525000000000041
20
26.575169097191321
42
0.41421356237309764
10
16.024999999999999
20
27.075169097191285
0
LWPOLYLINE
5
153
100
AcDbEntity
8
0
100
AcDbPolyline
90
8
70
1
43
0.0
10
-54.125000000000007
20
27.07516909719136
42
0.41421356237310281
10
-54.625000000000057
20
26.575169097191317
10
-54.625000000000014
20
13.575169097191374
42
0.41421356237310025
10
-54.125000000000007
20
13.075169097191413
10
-41.125
20
13.075169097191331
42
0.41421356237310414
10
-40.625
20
13.575169097191376
10
-40.624999999999851
20
26.575169097191317
42
0.41421356237310281
10
-41.125
20
27.07516909719148
0
LWPOLYLINE
5
154
100
AcDbEntity
8
0
100
AcDbPolyline
90
8
70
1
43
0.0
10
-92.724999999999994
20
13.575169097191369
10
-92.725000000000051
20
26.575169097191313
42
-0.41421356237310025
10
-92.224999999999994
20
27.075169097191356
10
-79.224999999999994
20
27.075169097191321
42
-0.41421356237309764
10
-78.724999999999994
20
26.575169097191317
10
-78.724999999999952
20
13.575169097191376
42
-0.41421356237310936
10
-79.224999999999994
20
13.075169097191326
10
-92.224999999999994
20
13.075169097191381
42
-0.41421356237313534
0
LWPOLYLINE
5
155
100
AcDbEntity
8
0
100
AcDbPolyline
90
8
70
1
43
0.0
10
-16.025000000000002
20
27.075169097191363
42
0.41421356237309503
10
-16.525000000000045
20
26.575169097191321
10
-16.525000000000006
20
13.575169097191376
42
0.41421356237309892
10
-16.024999999999999
20
13.075169097191415
10
-3.0250000000000412
20
13.07516909719137
42
0.41421356237311974
10
-2.5250000000000004
20
13.575169097191379
10
-2.5250000000000656
20
26.575169097191321
42
0.41421356237311519
10
-3.0250000000000421
20
27.075169097191285
0
LWPOLYLINE
5
156
100
AcDbEntity
8
0
100
AcDbPolyline
90
8
70
1
43
0.0
10
-35.075000000000003
20
27.07516909719136
42
0.41421356237309764
10
-35.575000000000053
20
26.575169097191317
10
-35.574999999999974
20
13.575169097191376
42
0.41421356237309243
10
-35.075000000000003
20
13.075169097191413
10
-22.074999999999999
20
13.075169097191331
42
0.41421356237309503
10
-21.575000000000003
20
13.575169097191379
10
-21.574999999999992
20
26.575169097191321
42
0.41421356237309243
10
-22.074999999999999
20
27.075169097191385
0
LWPOLYLINE
5
157
100
AcDbEntity
8
0
100
AcDbPolyline
90
8
70
1
43
0.0
10
60.174999999999997
20
27.07516909719137
42
0.41421356237310281
10
59.674999999999955
20
26.575169097191328
10
59.674999999999955
20
13.575169097191381
42
0.41421356237308593
10
60.174999999999997
20
13.075169097191319
10
73.174999999999997
20
13.075169097191409
42
0.41421356237309764
10
73.674999999999997
20
13.575169097191385
10
73.674999999999969
20
26.575169097191328
42
0.41421356237310281
10
73.174999999999997
20
27.075169097191392
0
LWPOLYLINE
5
158
100
AcDbEntity
8
0
100
AcDbPolyline
90
8
70
1
43
0.0
10
41.125
20
27.07516909719137
42
0.41421356237310281
10
40.624999999999943
20
26.575169097191328
10
40.624999999999957
20
13.575169097191379
42
0.41421356237309115
10
41.125
20
13.07516909719142
10
54.125000000000007
20
13.075169097191409
42
0.41421356237309764
10
54.625
20
13.575169097191385
10
54.625000000000014
20
26.575169097191328
42
0.41421356237309764
10
54.125000000000007
20
27.075169097191289
0
LWPOLYLINE
5
159
100
AcDbEntity
8
0
100
AcDbPolyline
90
8
70
1
43
0.0
10
-111.27500000000001
20
27.075169097191459
42
0.41421356237317047
10
-111.77500000000008
20
26.57516909719131
10
-111.77500000000003
20
13.575169097191369
42
0.41421356237309243
10
-111.27500000000001
20
13.075169097191408
10
-98.275000000000006
20
13.075169097191324
42
0.41421356237310025
10
-97.77500000000002
20
13.57516909719137
10
-97.775000000000006
20
26.575169097191313
42
0.41421356237310542
10
-98.275000000000006
20
27.075169097191278
0
LWPOLYLINE
5
160
100
AcDbEntity
8
0
100
AcDbPolyline
90
8
70
1
43
0.0
10
88.75
20
46.125169097191247
42
0.41421356237310025
10
88.25
20
45.625169097191232
10
88.250000000000028
20
32.625169097191183
42
0.41421356237309764
10
88.75
20
32.125169097191218
10
101.75
20
32.125169097191211
42
0.41421356237309764
10
102.25000000000001
20
32.625169097191183
10
102.25000000000006
20
45.625169097191232
42
0.41421356237309503
10
101.75
20
46.125169097191197
0
LWPOLYLINE
5
161
100
AcDbEntity
8
0
100
AcDbPolyline
90
8
70
1
43
0.0
10
69.700000000000003
20
46.125169097191247
42
0.41421356237311585
10
69.200000000000003
20
45.625169097191232
10
69.199999999999889
20
32.625169097191176
42
0.41421356237310025
10
69.700000000000003
20
32.125169097191211
10
82.700000000000017
20
32.125169097191169
42
0.41421356237307422
10
83.200000000000003
20
32.625169097191183
10
83.199999999999989
20
45.625169097191232
42
0.41421356237310025
10
82.700000000000017
20
46.125169097191197
0
LWPOLYLINE
5
162
100
AcDbEntity
8
0
100
AcDbPolyline
90
8
70
1
43
0.0
10
-135.08750000000001
20
27.075169097191356
42
0.41421356237311063
10
-135.58750000000006
20
26.575169097191313
10
-135.58750000000006
20
13.575169097191363
42
0.41421356237309115
10
-135.08750000000001
20
13.075169097191406
10
-122.08750000000002
20
13.075169097191395
42
0.41421356237309764
10
-121.58750000000001
20
13.57516909719137
10
-121.58750000000003
20
26.575169097191313
42
0.41421356237311324
10
-122.08750000000002
20
27.075169097191377
0
LWPOLYLINE
5
163
100
AcDbEntity
8
0
100
AcDbPolyline
90
8
70
1
43
0.0
10
12.549999999999997
20
46.125169097191232
42
0.41421356237309243
10
12.049999999999985
20
45.625169097191232
10
12.049999999999992
20
32.625169097191169
42
0.4142135623730937
10
12.549999999999997
20
32.125169097191211
10
25.549999999999997
20
32.125169097191197
42
0.41421356237310025
10
26.050000000000001
20
32.625169097191169
10
26.049999999999969
20
45.625169097191225
42
0.41421356237310281
10
25.549999999999997
20
46.12516909719119
0
LWPOLYLINE
5
164
100
AcDbEntity
8
0
100
AcDbPolyline
90
8
70
1
43
0.0
10
50.650000000000006
20
46.125169097191232
42
0.41421356237310542
10
50.149999999999999
20
45.625169097191225
10
50.149999999999963
20
32.625169097191275
42
0.41421356237308982
10
50.650000000000006
20
32.125169097191211
10
63.650000000000006
20
32.125169097191268
42
0.41421356237310542
10
64.150000000000006
20
32.625169097191282
10
64.149999999999977
20
45.625169097191232
42
0.41421356237310542
10
63.650000000000006
20
46.125169097191268
0
LWPOLYLINE
5
165
100
AcDbEntity
8
0
100
AcDbPolyline
90
8
70
1
43
0.0
10
-26.050000000000008
20
32.625169097191275
10
-26.050000000000011
20
45.625169097191225
42
-0.41421356237310542
10
-25.550000000000004
20
46.125169097191232
10
-12.550000000000006
20
46.125169097191176
42
-0.41421356237310025
10
-12.05000000000007
20
45.625169097191225
10
-12.050000000000029
20
32.625169097191275
42
-0.41421356237309631
10
-12.550000000000004
20
32.125169097191304
10
-25.550000000000004
20
32.125169097191268
42
-0.41421356237308982
0
LWPOLYLINE
5
166
100
AcDbEntity
8
0
100
AcDbPolyline
90
8
70
1
43
0.0
10
-82.700000000000017
20
46.125169097191225
42
0.41421356237307944
10
-83.200000000000003
20
45.625169097191218
10
-83.20000000000006
20
32.625169097191268
42
0.41421356237310802
10
-82.700000000000017
20
32.125169097191304
10
-69.700000000000003
20
32.125169097191261
42
0.41421356237310025
10
-69.200000000000003
20
32.625169097191261
10
-69.200000000000003
20
45.625169097191218
42
0.41421356237310542
10
-69.700000000000003
20
46.125169097191261
0
LWPOLYLINE
5
167
100
AcDbEntity
8
0
100
AcDbPolyline
90
8
70
1
43
0.0
10
-6.5000000000001137
20
46.125169097191232
42
0.41421356237309825
10
-7.0000000000001261
20
45.625169097191225
10
-7.0000000000000835
20
32.625169097191275
42
0.41421356237310086
10
-6.500000000000111
20
32.125169097191211
10
6.4999999999999982
20
32.125169097191268
42
0.41421356237309176
10
6.9999999999999982
20
32.625169097191275
10
6.9999999999999325
20
45.625169097191225
42
0.41421356237314383
10
6.4999999999999272
20
46.125169097191176
0
LWPOLYLINE
5
168
100
AcDbEntity
8
0
100
AcDbPolyline
90
8
70
1
43
0.0
10
45.099999999999973
20
45.625169097191225
42
0.41421356237310542
10
44.600000000000001
20
46.125169097191197
10
31.599999999999998
20
46.125169097191232
42
0.41421356237310542
10
31.099999999999998
20
45.625169097191225
10
31.099999999999955
20
32.625169097191275
42
0.41421356237309764
10
31.600000000000001
20
32.125169097191211
10
44.600000000000001
20
32.125169097191268
42
0.41421356237304563
10
45.100000000000009
20
32.625169097191169
0
LWPOLYLINE
5
169
100
AcDbEntity
8
0
100
AcDbPolyline
90
8
70
1
43
0.0
10
-45.100000000000009
20
32.625169097191268
10
-45.100000000000009
20
45.625169097191218
42
-0.41421356237311063
10
-44.600000000000001
20
46.125169097191232
10
-31.600000000000001
20
46.125169097191375
42
-0.41421356237309243
10
-31.099999999999856
20
45.625169097191225
10
-31.100000000000033
20
32.625169097191275
42
-0.41421356237310281
10
-31.600000000000005
20
32.125169097191296
10
-44.600000000000009
20
32.125169097191268
42
-0.41421356237309764
0
LWPOLYLINE
5
170
100
AcDbEntity
8
0
100
AcDbPolyline
90
8
70
1
43
0.0
10
-101.75
20
46.125169097191225
42
0.41421356237310025
10
-102.25000000000001
20
45.625169097191218
10
-102.25000000000001
20
32.625169097191261
42
0.41421356237310542
10
-101.75
20
32.125169097191304
10
-88.75
20
32.125169097191289
42
0.41421356237309764
10
-88.250000000000014
20
32.625169097191261
10
-88.249999999999957
20
45.625169097191218
42
0.41421356237309503
10
-88.75
20
46.125169097191261
0
LWPOLYLINE
5
171
100
AcDbEntity
8
0
100
AcDbPolyline
90
8
70
1
43
0.0
10
31.593750000000007
20
-32.074830902808642
10
31.593750000000004
20
-38.074830902808607
42
-0.41421356237309243
10
31.093750000000004
20
-38.5748309028086
10
10.500000000000004
20
-38.5748309028086
42
-0.41421356237309503
10
10.000000000000002
20
-38.074830902808607
10
10
20
-32.074830902808642
42
-0.41421356237309503
10
10.500000000000004
20
-31.574830902808642
10
31.093750000000004
20
-31.574830902808635
42
-0.41421356237309764
0
LWPOLYLINE
5
172
100
AcDbEntity
8
0
100
AcDbPolyline
90
8
70
1
43
0.0
10
-21.90625
20
-32.07483090280865
10
-21.90625
20
-38.074830902808614
42
-0.41421356237308982
10
-22.406249999999996
20
-38.5748309028086
10
-50.150000000000006
20
-38.574830902808607
42
-0.41421356237309503
10
-50.650000000000006
20
-38.074830902808607
10
-50.650000000000013
20
-32.074830902808657
42
-0.41421356237309764
10
-50.150000000000006
20
-31.574830902808646
10
-22.40625
20
-31.574830902808646
42
-0.41421356237310025
0
LWPOLYLINE
5
173
100
AcDbEntity
8
0
100
AcDbPolyline
90
8
70
1
43
0.0
10
-93.525000000000006
20
-44.074830902808671
10
-94.525000000000006
20
-44.074830902808728
42
-0.41421356237314705
10
-95.025000000000006
20
-43.574830902808628
10
-95.025000000000006
20
-30.574830902808667
42
-0.41421356237310542
10
-94.525000000000006
20
-30.074830902808671
10
-93.525000000000034
20
-30.074830902808657
42
-0.41421356237307944
10
-93.025000000000006
20
-30.574830902808671
10
-93.025000000000063
20
-43.574830902808621
42
-0.41421356237316787
0
LWPOLYLINE
5
174
100
AcDbEntity
8
0
100
AcDbPolyline
90
8
70
1
43
0.0
10
93.025000000000006
20
-43.574830902808699
10
93.025000000000006
20
-30.57483090280865
42
-0.41421356237310025
10
93.525000000000034
20
-30.074830902808646
10
94.525000000000006
20
-30.07483090280866
42
-0.41421356237311063
10
95.025000000000006
20
-30.574830902808657
10
95.025000000000006
20
-43.574830902808714
42
-0.41421356237307944
10
94.52500000000002
20
-44.074830902808706
10
93.525000000000034
20
-44.074830902808699
42
-0.41421356237308982
0
LWPOLYLINE
5
175
100
AcDbEntity
8
0
100
AcDbPolyline
90
8
70
1
43
0.0
10
97.406250000000014
20
-11.524830902808761
10
97.406250000000014
20
-24.524830902808709
42
-0.41421356237310542
10
96.90625
20
-25.024830902808702
10
91.21250000000002
20
-25.024830902808613
42
-0.41421356237307422
10
90.712500000000006
20
-24.524830902808606
10
90.712500000000006
20
-11.524830902808754
42
-0.41421356237307033
10
91.21250000000002
20
-11.024830902808757
10
96.90625
20
-11.024830902808754
42
-0.41421356237309503
0
LWPOLYLINE
5
176
100
AcDbEntity
8
0
100
AcDbPolyline
90
8
70
1
43
0.0
10
100.73750000000001
20
8.0251690971913909
10
102.75575000000002
20
8.0251690971913963
42
-0.41421356237307422
10
103.25575000000002
20
7.5251690971913892
10
103.25574979138382
20
-5.4748311114248605
42
-0.41421356237307488
10
102.75575000000002
20
-5.9748309028086668
10
100.73750000000001
20
-5.9748311114248507
42
-0.4142135623731048
10
100.2375
20
-5.4748311114248622
10
100.23749999999998
20
7.5251690971913892
42
-0.41421356237310542
0
LWPOLYLINE
5
177
100
AcDbEntity
8
0
100
AcDbPolyline
90
8
70
1
43
0.0
10
118.33750000000002
20
13.075169097191326
10
115.02500000000001
20
13.075169097191385
42
-0.41421356237309243
10
114.52500000000001
20
13.575169097191386
10
114.52500000000001
20
26.575169097191235
42
-0.41421356237310542
10
115.02500000000001
20
27.075169097191232
10
118.33750000000002
20
27.075169097191221
42
-0.41421356237310542
10
118.83750000000003
20
26.575169097191235
10
118.83750000000008
20
13.575169097191386
42
-0.41421356237309631
0
ENDSEC
0
SECTION
2
OBJECTS
0
DICTIONARY
5
C
100
AcDbDictionary
3
ACAD_GROUP
350
D
3
ACAD_MLINESTYLE
350
17
0
DICTIONARY
5
D
100
AcDbDictionary
0
DICTIONARY
5
1A
330
C
100
AcDbDictionary
0
DICTIONARY
5
17
100
AcDbDictionary
0
ENDSEC
0
EOF
